<?xml version="1.0" encoding="UTF-8" standalone="no" ?>
<!DOCTYPE svg PUBLIC "-//W3C//DTD SVG 1.1//EN" "http://www.w3.org/Graphics/SVG/1.1/DTD/svg11.dtd">
<svg xmlns="http://www.w3.org/2000/svg" xmlns:xlink="http://www.w3.org/1999/xlink" version="1.1" width="200" height="100" viewBox="0 0 200 100" xml:space="preserve">
<desc>Created with Fabric.js 5.3.0</desc>
<defs>
</defs>
<g transform="matrix(1.2174824683 0 0 6.1499912341 9.9633317228 49.9999288484)" id="8PWnud3BKlhA38lWarcDJ"  >
<path style="stroke: rgb(242,53,232); stroke-width: 0; stroke-dasharray: none; stroke-linecap: butt; stroke-dashoffset: 0; stroke-linejoin: miter; stroke-miterlimit: 4; fill: rgb(66,252,255); fill-rule: nonzero; opacity: 1;" vector-effect="non-scaling-stroke"  transform=" translate(-0.000005, -0.000005)" d="M -8.11688 -8.11688 L 8.11689 -8.11688 L 8.11689 8.11689 L -8.11688 8.11689 z" stroke-linecap="round" />
</g>
<g transform="matrix(1.2174824683 0 0 6.1499912341 67.1777597403 49.9917475957)" id="_yL2g2FB6oOWpt1CmILR2"  >
<path style="stroke: rgb(242,53,232); stroke-width: 0; stroke-dasharray: none; stroke-linecap: butt; stroke-dashoffset: 0; stroke-linejoin: miter; stroke-miterlimit: 4; fill: rgb(252,139,247); fill-rule: nonzero; opacity: 1;" vector-effect="non-scaling-stroke"  transform=" translate(-0.000005, -0.000005)" d="M -8.11688 -8.11688 L 8.11689 -8.11688 L 8.11689 8.11689 L -8.11688 8.11689 z" stroke-linecap="round" />
</g>
<g transform="matrix(1.0258968498 0 0 0.9999987984 100.1258116883 50.0000599818)" id="vwL0lYy4ejRtvIzOLoM6y"  >
<path style="stroke: rgb(0,0,0); stroke-width: 0; stroke-dasharray: none; stroke-linecap: butt; stroke-dashoffset: 0; stroke-linejoin: miter; stroke-miterlimit: 4; fill: rgb(142,252,194); fill-rule: nonzero; opacity: 1;" vector-effect="non-scaling-stroke"  transform=" translate(0, 0)" d="M -41.74905 49.91883 L 21.984720000000003 -49.91883 L 41.749050000000004 -49.91883 L -21.984719999999996 49.91883 z" stroke-linecap="round" />
</g>
<g transform="matrix(1.2174824683 0 0 6.1499912341 133.0738636364 50.0000595706)" id="s0PxTd2uUielcdOhNl8M1"  >
<path style="stroke: rgb(242,53,232); stroke-width: 0; stroke-dasharray: none; stroke-linecap: butt; stroke-dashoffset: 0; stroke-linejoin: miter; stroke-miterlimit: 4; fill: rgb(255,255,123); fill-rule: nonzero; opacity: 1;" vector-effect="non-scaling-stroke"  transform=" translate(-0.000005, -0.000005)" d="M -8.11688 -8.11688 L 8.11689 -8.11688 L 8.11689 8.11689 L -8.11688 8.11689 z" stroke-linecap="round" />
</g>
<g transform="matrix(1.0000000276 0 0 0.9999986824 161.5552658695 50.0000657724)" id="urIvEvmMbSDOH06a80qYS"  >
<path style="stroke: rgb(0,0,0); stroke-width: 0; stroke-dasharray: none; stroke-linecap: butt; stroke-dashoffset: 0; stroke-linejoin: miter; stroke-miterlimit: 4; fill: rgb(96,170,255); fill-rule: nonzero; opacity: 1;" vector-effect="non-scaling-stroke"  transform=" translate(0, 0)" d="M -38.36357 49.91883 L 20.100569999999998 -49.918710000000004 L 38.36355999999999 -49.91884 L -18.59924000000001 49.91884999999999 z" stroke-linecap="round" />
</g>
<g transform="matrix(1.125 0 0 6.15 190.7873376623 50)" id="vkSswEvPxVRma5kr8DHVs"  >
<path style="stroke: rgb(23,242,176); stroke-width: 0; stroke-dasharray: none; stroke-linecap: butt; stroke-dashoffset: 0; stroke-linejoin: miter; stroke-miterlimit: 4; fill: rgb(255,82,95); fill-rule: nonzero; opacity: 1;" vector-effect="non-scaling-stroke"  transform=" translate(-0.000005, -0.000005)" d="M -8.11688 -8.11688 L 8.11689 -8.11688 L 8.11689 8.11689 L -8.11688 8.11689 z" stroke-linecap="round" />
</g>
</svg>